/* XPM */
const char * florb_xpm[] = {
"32 32 189 2",
"  	c None",
". 	c #FFFFFF",
"+ 	c #B7B7B7",
"@ 	c #999494",
"# 	c #434343",
"$ 	c #B8B8B8",
"% 	c #E4E4E4",
"& 	c #401919",
"* 	c #BABABA",
"= 	c #424242",
"- 	c #B2B2B2",
"; 	c #1C1C1C",
"> 	c #E3E3E3",
", 	c #897070",
"' 	c #9E0000",
") 	c #886F6F",
"! 	c #E5E5E5",
"~ 	c #1D1D1D",
"{ 	c #AEAEAE",
"] 	c #FEFEFE",
"^ 	c #343434",
"/ 	c #393939",
"( 	c #F9F9F9",
"_ 	c #FDFDFD",
": 	c #703232",
"< 	c #A70000",
"[ 	c #703131",
"} 	c #3C3C3C",
"| 	c #313131",
"1 	c #777777",
"2 	c #000000",
"3 	c #5A5A5A",
"4 	c #B3A9A9",
"5 	c #8E0505",
"6 	c #5D5D5D",
"7 	c #010101",
"8 	c #737373",
"9 	c #EAEAEA",
"0 	c #090909",
"a 	c #898989",
"b 	c #794E4E",
"c 	c #784D4D",
"d 	c #8A8A8A",
"e 	c #0A0A0A",
"f 	c #181818",
"g 	c #515151",
"h 	c #171717",
"i 	c #BCBCBC",
"j 	c #E6E6E6",
"k 	c #761919",
"l 	c #771818",
"m 	c #E6E5E5",
"n 	c #BDBDBD",
"o 	c #191919",
"p 	c #4E4E4E",
"q 	c #B0B0B0",
"r 	c #070707",
"s 	c #282828",
"t 	c #8A7171",
"u 	c #A20000",
"v 	c #E7E7E7",
"w 	c #2A2A2A",
"x 	c #050505",
"y 	c #ADADAD",
"z 	c #353535",
"A 	c #3D3D3D",
"B 	c #FBFBFB",
"C 	c #713333",
"D 	c #3F3F3F",
"E 	c #757575",
"F 	c #5F5F5F",
"G 	c #B3ABAB",
"H 	c #8D0606",
"I 	c #B4AAAA",
"J 	c #616161",
"K 	c #727272",
"L 	c #E9E9E9",
"M 	c #562C2C",
"N 	c #562B2B",
"O 	c #0B0B0B",
"P 	c #505050",
"Q 	c #5E0303",
"R 	c #600303",
"S 	c #010000",
"T 	c #4D4D4D",
"U 	c #AFAFAF",
"V 	c #180000",
"W 	c #190000",
"X 	c #ACACAC",
"Y 	c #3D0000",
"Z 	c #3F0000",
"` 	c #323232",
" .	c #747474",
"..	c #090000",
"+.	c #870000",
"@.	c #880000",
"#.	c #0A0000",
"$.	c #717171",
"%.	c #E8E8E8",
"&.	c #300808",
"*.	c #990000",
"=.	c #310707",
"-.	c #630808",
";.	c #800000",
">.	c #170000",
",.	c #640707",
"'.	c #8B7474",
").	c #A10000",
"!.	c #1E0000",
"~.	c #1D0000",
"{.	c #8B7171",
"].	c #6F3434",
"^.	c #A50000",
"/.	c #2B0000",
"(.	c #6F3232",
"_.	c #B7AFAF",
":.	c #8D0707",
"<.	c #420000",
"[.	c #8C0505",
"}.	c #B6ACAC",
"|.	c #795050",
"1.	c #620303",
"2.	c #080000",
"3.	c #070000",
"4.	c #610303",
"5.	c #764D4D",
"6.	c #751C1C",
"7.	c #890A0A",
"8.	c #3F2C2C",
"9.	c #3B2B2B",
"0.	c #8B0B0B",
"a.	c #751919",
"b.	c #8C7575",
"c.	c #A00000",
"d.	c #9A0101",
"e.	c #7D5F5F",
"f.	c #ABABAB",
"g.	c #060606",
"h.	c #AAAAAA",
"i.	c #7E6161",
"j.	c #8A7272",
"k.	c #6F3535",
"l.	c #A40000",
"m.	c #683D3D",
"n.	c #333333",
"o.	c #693F3F",
"p.	c #6E3131",
"q.	c #B7B0B0",
"r.	c #8B0707",
"s.	c #682828",
"t.	c #707070",
"u.	c #E8E7E7",
"v.	c #6A2A2A",
"w.	c #8B0505",
"x.	c #B6ADAD",
"y.	c #795151",
"z.	c #771717",
"A.	c #C4BCBC",
"B.	c #C5BDBD",
"C.	c #771919",
"D.	c #784E4E",
"E.	c #8A0909",
"F.	c #9B8989",
"G.	c #9A8A8A",
"H.	c #880A0A",
"I.	c #721818",
"J.	c #8C7777",
"K.	c #930000",
"L.	c #775A5A",
"M.	c #A9A9A9",
"N.	c #785D5D",
"O.	c #930101",
"P.	c #8C7373",
"Q.	c #6D3434",
"R.	c #633939",
"S.	c #653C3C",
"T.	c #6B3131",
"U.	c #B8B2B2",
"V.	c #441C1C",
"W.	c #E4E3E3",
"X.	c #6F6F6F",
"Y.	c #431D1D",
"Z.	c #B7AEAE",
"`.	c #544343",
" +	c #C0B8B8",
".+	c #C2BABA",
"++	c #534242",
"@+	c #BAB7B7",
"#+	c #949494",
". . . + . . . . . . . . . . . @ . . . . . . . . . . . + . . . . ",
". . . # $ . . . . . . . . . % & % . . . . . . . . . * = . . . . ",
". . . - ; > . . . . . . . . , ' ) . . . . . . . . ! ~ { . . . . ",
". . . ] ^ / ( . . . . . . _ : < [ _ . . . . . . ( } | ] . . . . ",
". . . . 1 2 3 . . . . . . 4 5 < 5 4 . . . . . . 6 7 8 . . . . . ",
". . . . 9 ; 0 a . . . . . b < < < c . . . . . d e f 9 . . . . . ",
". . . . . g 2 h i . . . j k < < < l m . . . n o 2 p . . . . . . ",
". . . . . q r 2 s j . . t u < < < u , . . v w 2 x y . . . . . . ",
". . . . . ] z 2 2 A B ] C < < < < < [ ] B D 2 2 | ] . . . . . . ",
". . . . . . E 2 2 7 F G H < < < < < 5 I J 7 2 2 K . . . . . . . ",
". . . . . . L ; 2 2 e M < < < < < < < N O 2 2 o L . . . . . . . ",
". . . . . . . P 2 2 2 Q < < < < < < < R S 2 2 T . . . . . . . . ",
". . . . . . . U r 2 V u < < < < < < < u W 2 x X . . . . . . . . ",
". . . . . . . ] ^ 2 Y < < < < < < < < < Z 2 ` ] . . . . . . . . ",
". . . . . . . .  ...+.< < < < < < < < < @.#.$.. . . . . . . . . ",
". . . . . . . . %.&.< < < < < *.< < < < < =.%.. . . . . . . . . ",
". . . . . . . . %.-.< < < < ;.>.;.< < < < ,.%.. . . . . . . . . ",
". . . . . . . . '.).< < < *.!.2 ~.*.< < < ).{.. . . . . . . . . ",
". . . . . . . ] ].< < < ^./.2 2 2 /.^.< < < (.] . . . . . . . . ",
". . . . . . . _.:.< < < <.S 2 2 2 S <.< < < [.}.. . . . . . . . ",
". . . . . . . |.< < < 1.2.2 2 2 2 2 3.4.< < < 5.. . . . . . . . ",
". . . . . . L 6.< < 7.8.2 2 2 2 2 2 2 9.0.< < a.L . . . . . . . ",
". . . . . . b.c.< d.e.f.g.2 2 2 2 2 x h.i.d.< c.j.. . . . . . . ",
". . . . . ] k.< l.m.B ] n.2 2 2 2 2 | ] B o.l.< p.] . . . . . . ",
". . . . . q.r.< s.j . . $.2 2 2 2 2 t.. . u.v.< w.x.. . . . . . ",
". . . . . y.< z.A.. . . j o 2 2 2 f ! . . . B.C.< D.. . . . . . ",
". . . . 9 6.E.F.. . . . . p 2 2 2 T . . . . . G.H.I.9 . . . . . ",
". . . . J.K.L.. . . . . . M.x 2 x M.. . . . . . N.O.P.. . . . . ",
". . . ] Q.R.( . . . . . . _ ` 2 | _ . . . . . . ( S.T.] . . . . ",
". . . U.V.W.. . . . . . . . t.2 X.. . . . . . . . m Y.Z.. . . . ",
". . . `. +. . . . . . . . . % o % . . . . . . . . . .+++. . . . ",
". . . @+. . . . . . . . . . . #+. . . . . . . . . . . @+. . . . "};
